<mxfile host="app.diagrams.net" modified="2023-10-26T10:53:06.753Z" agent="Mozilla/5.0 (Windows NT 10.0; Win64; x64; rv:109.0) Gecko/20100101 Firefox/119.0" etag="_1BvnSGgqBLDJDNh_IV2" version="22.0.8" type="device">
  <diagram name="페이지-1" id="qpX3pxss1zNDdee86AM-">
    <mxGraphModel dx="1025" dy="576" grid="1" gridSize="10" guides="1" tooltips="1" connect="1" arrows="1" fold="1" page="1" pageScale="1" pageWidth="827" pageHeight="1169" math="0" shadow="0">
      <root>
        <mxCell id="0" />
        <mxCell id="1" parent="0" />
        <mxCell id="HTbDmQJBQSAlxIpeWF-5-1" value="&lt;font style=&quot;font-size: 30px;&quot;&gt;Chagok Scraper 순서도&lt;br style=&quot;font-size: 30px;&quot;&gt;&lt;/font&gt;" style="text;html=1;strokeColor=none;fillColor=none;align=center;verticalAlign=middle;whiteSpace=wrap;rounded=0;fontSize=30;" parent="1" vertex="1">
          <mxGeometry x="640" y="60" width="350" height="30" as="geometry" />
        </mxCell>
        <mxCell id="HTbDmQJBQSAlxIpeWF-5-28" style="edgeStyle=orthogonalEdgeStyle;rounded=0;orthogonalLoop=1;jettySize=auto;html=1;entryX=0.5;entryY=0;entryDx=0;entryDy=0;" parent="1" source="HTbDmQJBQSAlxIpeWF-5-23" target="HTbDmQJBQSAlxIpeWF-5-26" edge="1">
          <mxGeometry relative="1" as="geometry" />
        </mxCell>
        <mxCell id="HTbDmQJBQSAlxIpeWF-5-23" value="수집해야 할 Url 리스트 반환" style="rounded=0;whiteSpace=wrap;html=1;" parent="1" vertex="1">
          <mxGeometry x="1075" y="245" width="170" height="60" as="geometry" />
        </mxCell>
        <mxCell id="HTbDmQJBQSAlxIpeWF-5-66" style="edgeStyle=orthogonalEdgeStyle;rounded=0;orthogonalLoop=1;jettySize=auto;html=1;entryX=0.5;entryY=0;entryDx=0;entryDy=0;" parent="1" source="HTbDmQJBQSAlxIpeWF-5-24" target="HTbDmQJBQSAlxIpeWF-5-47" edge="1">
          <mxGeometry relative="1" as="geometry">
            <Array as="points">
              <mxPoint x="560" y="600" />
              <mxPoint x="560" y="210" />
              <mxPoint x="775" y="210" />
            </Array>
          </mxGeometry>
        </mxCell>
        <mxCell id="HTbDmQJBQSAlxIpeWF-5-24" value="수집 할 사이트에 접근" style="rounded=0;whiteSpace=wrap;html=1;" parent="1" vertex="1">
          <mxGeometry x="310" y="570" width="140" height="60" as="geometry" />
        </mxCell>
        <mxCell id="HTbDmQJBQSAlxIpeWF-5-92" style="edgeStyle=orthogonalEdgeStyle;rounded=0;orthogonalLoop=1;jettySize=auto;html=1;" parent="1" source="HTbDmQJBQSAlxIpeWF-5-26" target="HTbDmQJBQSAlxIpeWF-5-91" edge="1">
          <mxGeometry relative="1" as="geometry" />
        </mxCell>
        <mxCell id="HTbDmQJBQSAlxIpeWF-5-26" value="수집된 게시글 Url" style="swimlane;whiteSpace=wrap;html=1;" parent="1" vertex="1">
          <mxGeometry x="1010" y="345" width="300" height="445" as="geometry" />
        </mxCell>
        <mxCell id="HTbDmQJBQSAlxIpeWF-5-69" style="edgeStyle=orthogonalEdgeStyle;rounded=0;orthogonalLoop=1;jettySize=auto;html=1;entryX=0.5;entryY=0;entryDx=0;entryDy=0;" parent="HTbDmQJBQSAlxIpeWF-5-26" source="HTbDmQJBQSAlxIpeWF-5-29" target="HTbDmQJBQSAlxIpeWF-5-68" edge="1">
          <mxGeometry relative="1" as="geometry" />
        </mxCell>
        <mxCell id="HTbDmQJBQSAlxIpeWF-5-29" value="&lt;div&gt;해당 글의 스케마에 따른&lt;/div&gt;&lt;div&gt;데이터 수집&lt;br&gt;&lt;/div&gt;" style="rounded=0;whiteSpace=wrap;html=1;" parent="HTbDmQJBQSAlxIpeWF-5-26" vertex="1">
          <mxGeometry x="75" y="145" width="150" height="60" as="geometry" />
        </mxCell>
        <mxCell id="HTbDmQJBQSAlxIpeWF-5-77" style="edgeStyle=orthogonalEdgeStyle;rounded=0;orthogonalLoop=1;jettySize=auto;html=1;entryX=0.5;entryY=0;entryDx=0;entryDy=0;" parent="HTbDmQJBQSAlxIpeWF-5-26" source="HTbDmQJBQSAlxIpeWF-5-68" target="HTbDmQJBQSAlxIpeWF-5-76" edge="1">
          <mxGeometry relative="1" as="geometry" />
        </mxCell>
        <mxCell id="HTbDmQJBQSAlxIpeWF-5-68" value="&lt;div&gt;html unescape, &lt;br&gt;&lt;/div&gt;&lt;div&gt;기술 태그 추출&lt;/div&gt;" style="rounded=0;whiteSpace=wrap;html=1;" parent="HTbDmQJBQSAlxIpeWF-5-26" vertex="1">
          <mxGeometry x="75" y="255" width="150" height="60" as="geometry" />
        </mxCell>
        <mxCell id="HTbDmQJBQSAlxIpeWF-5-76" value="DB 저장" style="rounded=0;whiteSpace=wrap;html=1;" parent="HTbDmQJBQSAlxIpeWF-5-26" vertex="1">
          <mxGeometry x="75" y="355" width="150" height="55" as="geometry" />
        </mxCell>
        <mxCell id="HTbDmQJBQSAlxIpeWF-5-80" value="" style="endArrow=classic;html=1;rounded=0;exitX=0.5;exitY=1;exitDx=0;exitDy=0;entryX=0.5;entryY=1;entryDx=0;entryDy=0;" parent="HTbDmQJBQSAlxIpeWF-5-26" source="HTbDmQJBQSAlxIpeWF-5-76" target="HTbDmQJBQSAlxIpeWF-5-26" edge="1">
          <mxGeometry width="50" height="50" relative="1" as="geometry">
            <mxPoint x="260" y="410" as="sourcePoint" />
            <mxPoint x="310" y="360" as="targetPoint" />
          </mxGeometry>
        </mxCell>
        <mxCell id="HTbDmQJBQSAlxIpeWF-5-95" value="" style="edgeStyle=orthogonalEdgeStyle;rounded=0;orthogonalLoop=1;jettySize=auto;html=1;" parent="HTbDmQJBQSAlxIpeWF-5-26" source="HTbDmQJBQSAlxIpeWF-5-93" target="HTbDmQJBQSAlxIpeWF-5-29" edge="1">
          <mxGeometry relative="1" as="geometry" />
        </mxCell>
        <mxCell id="HTbDmQJBQSAlxIpeWF-5-93" value="수집할 게시글 Url 접근" style="rounded=0;whiteSpace=wrap;html=1;" parent="HTbDmQJBQSAlxIpeWF-5-26" vertex="1">
          <mxGeometry x="75" y="65" width="150" height="40" as="geometry" />
        </mxCell>
        <mxCell id="HTbDmQJBQSAlxIpeWF-5-96" value="" style="edgeStyle=orthogonalEdgeStyle;rounded=0;orthogonalLoop=1;jettySize=auto;html=1;entryX=0.5;entryY=0;entryDx=0;entryDy=0;" parent="HTbDmQJBQSAlxIpeWF-5-26" target="HTbDmQJBQSAlxIpeWF-5-93" edge="1">
          <mxGeometry relative="1" as="geometry">
            <mxPoint x="150" y="24" as="sourcePoint" />
            <mxPoint x="150" y="70" as="targetPoint" />
          </mxGeometry>
        </mxCell>
        <mxCell id="HTbDmQJBQSAlxIpeWF-5-37" style="edgeStyle=orthogonalEdgeStyle;rounded=0;orthogonalLoop=1;jettySize=auto;html=1;" parent="1" source="HTbDmQJBQSAlxIpeWF-5-34" target="HTbDmQJBQSAlxIpeWF-5-36" edge="1">
          <mxGeometry relative="1" as="geometry" />
        </mxCell>
        <mxCell id="HTbDmQJBQSAlxIpeWF-5-34" value="" style="rounded=0;whiteSpace=wrap;html=1;" parent="1" vertex="1">
          <mxGeometry x="265" y="180" width="230" height="110" as="geometry" />
        </mxCell>
        <mxCell id="HTbDmQJBQSAlxIpeWF-5-27" value="&lt;div&gt;수집 할 사이트에 대한&amp;nbsp;&lt;/div&gt;&lt;div&gt;각 스케쥴러&lt;/div&gt;" style="strokeWidth=1;html=1;shape=mxgraph.flowchart.terminator;whiteSpace=wrap;" parent="1" vertex="1">
          <mxGeometry x="285" y="205" width="190" height="60" as="geometry" />
        </mxCell>
        <mxCell id="HTbDmQJBQSAlxIpeWF-5-39" style="edgeStyle=orthogonalEdgeStyle;rounded=0;orthogonalLoop=1;jettySize=auto;html=1;" parent="1" source="HTbDmQJBQSAlxIpeWF-5-36" target="HTbDmQJBQSAlxIpeWF-5-38" edge="1">
          <mxGeometry relative="1" as="geometry" />
        </mxCell>
        <mxCell id="HTbDmQJBQSAlxIpeWF-5-36" value="visitor 초기화" style="rounded=0;whiteSpace=wrap;html=1;" parent="1" vertex="1">
          <mxGeometry x="310" y="340" width="140" height="50" as="geometry" />
        </mxCell>
        <mxCell id="HTbDmQJBQSAlxIpeWF-5-40" style="edgeStyle=orthogonalEdgeStyle;rounded=0;orthogonalLoop=1;jettySize=auto;html=1;entryX=0.5;entryY=0;entryDx=0;entryDy=0;" parent="1" source="HTbDmQJBQSAlxIpeWF-5-38" target="HTbDmQJBQSAlxIpeWF-5-24" edge="1">
          <mxGeometry relative="1" as="geometry" />
        </mxCell>
        <mxCell id="HTbDmQJBQSAlxIpeWF-5-38" value="&lt;div&gt;데이터 베이스에서&lt;/div&gt;&lt;div&gt;최신글의 개시일 or 개시글 id 획득&lt;br&gt;&lt;/div&gt;" style="rounded=0;whiteSpace=wrap;html=1;" parent="1" vertex="1">
          <mxGeometry x="265" y="450" width="230" height="50" as="geometry" />
        </mxCell>
        <mxCell id="HTbDmQJBQSAlxIpeWF-5-82" style="edgeStyle=orthogonalEdgeStyle;rounded=0;orthogonalLoop=1;jettySize=auto;html=1;entryX=0.5;entryY=0;entryDx=0;entryDy=0;" parent="1" source="HTbDmQJBQSAlxIpeWF-5-45" target="HTbDmQJBQSAlxIpeWF-5-81" edge="1">
          <mxGeometry relative="1" as="geometry" />
        </mxCell>
        <mxCell id="HTbDmQJBQSAlxIpeWF-5-45" value="&lt;div&gt;각 사이트의 &lt;br&gt;&lt;/div&gt;&lt;div&gt;데이터를 얻을 Url 수집&lt;br&gt;&lt;/div&gt;" style="rounded=0;whiteSpace=wrap;html=1;" parent="1" vertex="1">
          <mxGeometry x="690" y="460" width="170" height="60" as="geometry" />
        </mxCell>
        <mxCell id="HTbDmQJBQSAlxIpeWF-5-50" style="edgeStyle=orthogonalEdgeStyle;rounded=0;orthogonalLoop=1;jettySize=auto;html=1;entryX=0.5;entryY=0;entryDx=0;entryDy=0;" parent="1" source="HTbDmQJBQSAlxIpeWF-5-47" target="HTbDmQJBQSAlxIpeWF-5-49" edge="1">
          <mxGeometry relative="1" as="geometry" />
        </mxCell>
        <mxCell id="HTbDmQJBQSAlxIpeWF-5-47" value="글 목록 요소 획득" style="rounded=0;whiteSpace=wrap;html=1;" parent="1" vertex="1">
          <mxGeometry x="705" y="230" width="140" height="60" as="geometry" />
        </mxCell>
        <mxCell id="HTbDmQJBQSAlxIpeWF-5-51" style="edgeStyle=orthogonalEdgeStyle;rounded=0;orthogonalLoop=1;jettySize=auto;html=1;entryX=0.5;entryY=0;entryDx=0;entryDy=0;" parent="1" source="HTbDmQJBQSAlxIpeWF-5-49" target="HTbDmQJBQSAlxIpeWF-5-45" edge="1">
          <mxGeometry relative="1" as="geometry" />
        </mxCell>
        <mxCell id="HTbDmQJBQSAlxIpeWF-5-90" style="edgeStyle=orthogonalEdgeStyle;rounded=0;orthogonalLoop=1;jettySize=auto;html=1;entryX=0.5;entryY=0;entryDx=0;entryDy=0;" parent="1" source="HTbDmQJBQSAlxIpeWF-5-49" target="HTbDmQJBQSAlxIpeWF-5-23" edge="1">
          <mxGeometry relative="1" as="geometry" />
        </mxCell>
        <mxCell id="HTbDmQJBQSAlxIpeWF-5-49" value="&lt;div&gt;해당 글이 이미&lt;/div&gt;&lt;div&gt;방문(수집)한 글 인가?&lt;br&gt;&lt;/div&gt;" style="rhombus;whiteSpace=wrap;html=1;" parent="1" vertex="1">
          <mxGeometry x="680" y="340" width="190" height="80" as="geometry" />
        </mxCell>
        <mxCell id="HTbDmQJBQSAlxIpeWF-5-52" value="No" style="text;html=1;align=center;verticalAlign=middle;resizable=0;points=[];autosize=1;strokeColor=none;fillColor=none;" parent="1" vertex="1">
          <mxGeometry x="740" y="420" width="40" height="30" as="geometry" />
        </mxCell>
        <mxCell id="HTbDmQJBQSAlxIpeWF-5-53" value="Yes" style="text;html=1;align=center;verticalAlign=middle;resizable=0;points=[];autosize=1;strokeColor=none;fillColor=none;" parent="1" vertex="1">
          <mxGeometry x="860" y="350" width="40" height="30" as="geometry" />
        </mxCell>
        <mxCell id="HTbDmQJBQSAlxIpeWF-5-88" style="edgeStyle=orthogonalEdgeStyle;rounded=0;orthogonalLoop=1;jettySize=auto;html=1;entryX=0.5;entryY=0;entryDx=0;entryDy=0;" parent="1" source="HTbDmQJBQSAlxIpeWF-5-81" target="HTbDmQJBQSAlxIpeWF-5-86" edge="1">
          <mxGeometry relative="1" as="geometry" />
        </mxCell>
        <mxCell id="HTbDmQJBQSAlxIpeWF-5-81" value="마지막 글인가?" style="rhombus;whiteSpace=wrap;html=1;" parent="1" vertex="1">
          <mxGeometry x="685" y="560" width="180" height="60" as="geometry" />
        </mxCell>
        <mxCell id="HTbDmQJBQSAlxIpeWF-5-87" style="edgeStyle=orthogonalEdgeStyle;rounded=0;orthogonalLoop=1;jettySize=auto;html=1;entryX=0;entryY=0.5;entryDx=0;entryDy=0;exitX=0.5;exitY=1;exitDx=0;exitDy=0;" parent="1" source="HTbDmQJBQSAlxIpeWF-5-86" target="HTbDmQJBQSAlxIpeWF-5-49" edge="1">
          <mxGeometry relative="1" as="geometry">
            <Array as="points">
              <mxPoint x="775" y="750" />
              <mxPoint x="660" y="750" />
              <mxPoint x="660" y="380" />
            </Array>
          </mxGeometry>
        </mxCell>
        <mxCell id="HTbDmQJBQSAlxIpeWF-5-86" value="다음 페이지로 이동" style="rounded=0;whiteSpace=wrap;html=1;" parent="1" vertex="1">
          <mxGeometry x="710" y="660" width="130" height="60" as="geometry" />
        </mxCell>
        <mxCell id="HTbDmQJBQSAlxIpeWF-5-89" value="Yes" style="text;html=1;align=center;verticalAlign=middle;resizable=0;points=[];autosize=1;strokeColor=none;fillColor=none;" parent="1" vertex="1">
          <mxGeometry x="740" y="620" width="40" height="30" as="geometry" />
        </mxCell>
        <mxCell id="HTbDmQJBQSAlxIpeWF-5-91" value="다음 스케줄링 대기" style="strokeWidth=1;html=1;shape=mxgraph.flowchart.terminator;whiteSpace=wrap;" parent="1" vertex="1">
          <mxGeometry x="1065" y="830" width="190" height="60" as="geometry" />
        </mxCell>
        <mxCell id="HTbDmQJBQSAlxIpeWF-5-103" style="edgeStyle=orthogonalEdgeStyle;rounded=0;orthogonalLoop=1;jettySize=auto;html=1;entryX=0;entryY=0.5;entryDx=0;entryDy=0;exitX=0;exitY=0.5;exitDx=0;exitDy=0;exitPerimeter=0;strokeColor=#3333FF;dashed=1;dashPattern=8 8;endArrow=none;endFill=0;" parent="1" source="HTbDmQJBQSAlxIpeWF-5-101" target="HTbDmQJBQSAlxIpeWF-5-49" edge="1">
          <mxGeometry relative="1" as="geometry">
            <Array as="points">
              <mxPoint x="600" y="760" />
              <mxPoint x="600" y="380" />
            </Array>
          </mxGeometry>
        </mxCell>
        <mxCell id="HTbDmQJBQSAlxIpeWF-5-101" value="" style="strokeWidth=1;html=1;shape=mxgraph.flowchart.annotation_2;align=left;labelPosition=right;pointerEvents=1;rotation=90;strokeColor=#0000CC;" parent="1" vertex="1">
          <mxGeometry x="575" y="721" width="50" height="130" as="geometry" />
        </mxCell>
        <mxCell id="HTbDmQJBQSAlxIpeWF-5-104" value="&lt;div style=&quot;font-size: 14px;&quot;&gt;해당 스크랩에 대한&lt;br style=&quot;font-size: 14px;&quot;&gt;&lt;/div&gt;&lt;div style=&quot;font-size: 14px;&quot;&gt;Visitor을 통해 검사&lt;/div&gt;" style="text;html=1;align=center;verticalAlign=middle;resizable=0;points=[];autosize=1;strokeColor=none;fillColor=none;fontSize=14;" parent="1" vertex="1">
          <mxGeometry x="531" y="805" width="140" height="50" as="geometry" />
        </mxCell>
      </root>
    </mxGraphModel>
  </diagram>
</mxfile>
